nColumns=19
nRows=51
DataType=double
version=3
OpenSimVersion=4.1
endheader
time	ground_force_1_vx	ground_force_1_vy	ground_force_1_vz	ground_force_1_px	ground_force_1_py	ground_force_1_pz	ground_force_1_mx	ground_force_1_my	ground_force_1_mz	ground_force_2_vx	ground_force_2_vy	ground_force_2_vz	ground_force_2_px	ground_force_2_py	ground_force_2_pz	ground_force_2_mx	ground_force_2_my	ground_force_2_mz
1.39167	0	0	0	-0.000548599	0	-0.000116711	0	0	0	7.28687	16.1671	-3.23379	0.816889	0	-0.188949	0	-2.60931	0
1.4	0	0	0	-0.000548752	0	-0.000116748	0	0	0	0	0	0	-0.000547793	0	-0.000116593	0	0	0
1.40833	0	0	0	-0.000548903	0	-0.000116784	0	0	0	0	0	0	-0.000547938	0	-0.000116628	0	0	0
1.41667	0	0	0	-0.000549053	0	-0.000116821	0	0	0	0	0	0	-0.000548081	0	-0.000116664	0	0	0
1.425	0	0	0	-0.000549202	0	-0.000116857	0	0	0	0	0	0	-0.000548223	0	-0.000116699	0	0	0
1.43333	0	0	0	-0.00054935	0	-0.000116893	0	0	0	0	0	0	-0.000548364	0	-0.000116734	0	0	0
1.44167	0	0	0	-0.000549497	0	-0.000116928	0	0	0	0	0	0	-0.000548504	0	-0.000116768	0	0	0
1.45	0	0	0	-0.000549643	0	-0.000116964	0	0	0	0	0	0	-0.000548643	0	-0.000116802	0	0	0
1.45833	0	0	0	-0.000549787	0	-0.000116999	0	0	0	0	0	0	-0.00054878	0	-0.000116836	0	0	0
1.46667	0	0	0	-0.000549931	0	-0.000117033	0	0	0	0	0	0	-0.000548917	0	-0.00011687	0	0	0
1.475	0	0	0	-0.000550073	0	-0.000117068	0	0	0	0	0	0	-0.000549052	0	-0.000116903	0	0	0
1.48333	0	0	0	-0.000550213	0	-0.000117102	0	0	0	0	0	0	-0.000549187	0	-0.000116936	0	0	0
1.49167	-5.52268	25.7255	-11.3795	1.2952	0	-0.231157	0	-1.54625	0	0	0	0	-0.00054932	0	-0.000116969	0	0	0
1.5	-29.6644	74.4401	-22.7749	1.35297	0	-0.27315	-0	1.83773	-0	0	0	0	-0.000549451	0	-0.000117001	0	0	0
1.50833	-81.0493	187.637	-38.0708	1.37962	0	-0.289639	-0	5.64701	-0	0	0	0	-0.000549582	0	-0.000117034	0	0	0
1.51667	-148.909	374.126	-52.7282	1.38951	0	-0.297479	-0	8.97653	-0	0	0	0	-0.000549711	0	-0.000117065	0	0	0
1.525	-188.148	598.232	-59.7247	1.38053	0	-0.303193	-0	10.9008	-0	0	0	0	-0.000549839	0	-0.000117097	0	0	0
1.53333	-178.376	834.696	-53.333	1.34738	0	-0.309204	-0	10.7797	-0	0	0	0	-0.000549965	0	-0.000117128	0	0	0
1.54167	-167.058	1083.05	-31.3209	1.30383	0	-0.315433	-0	8.50156	-0	0	0	0	-0.000550091	0	-0.000117159	0	0	0
1.55	-185.643	1320.02	4.32263	1.26694	0	-0.3207	-0	4.55724	-0	0	0	0	-0.000550214	0	-0.000117189	0	0	0
1.55833	-206.19	1519.71	45.5193	1.23623	0	-0.324722	0	-0.099247	0	0	0	0	-0.000550337	0	-0.00011722	0	0	0
1.56667	-194.566	1679.48	79.799	1.20467	0	-0.327957	0	-4.36787	0	0	0	0	-0.000550458	0	-0.000117249	0	0	0
1.575	-145.032	1804.87	98.2653	1.17023	0	-0.330414	0	-7.37323	0	0	0	0	-0.000550578	0	-0.000117279	0	0	0
1.58333	-77.8319	1892.4	101.683	1.13619	0	-0.331927	0	-8.72393	0	0	0	0	-0.000550696	0	-0.000117308	0	0	0
1.59167	-12.2063	1938.2	97.4143	1.10444	0	-0.332229	0	-8.55418	0	0	0	0	-0.000550813	0	-0.000117337	0	0	0
1.6	48.8538	1942.16	91.6065	1.0737	0	-0.331564	0	-7.36508	0	0	0	0	-0.000550928	0	-0.000117365	0	0	0
1.60833	104.966	1901.61	85.8668	1.04317	0	-0.33075	0	-5.77605	0	0	0	0	-0.000551042	0	-0.000117393	0	0	0
1.61667	153.867	1813.01	80.0557	1.01334	0	-0.330285	0	-4.30275	0	0	0	0	-0.000551154	0	-0.000117421	0	0	0
1.625	191.358	1675.83	74.9404	0.984704	0	-0.330194	0	-3.2267	0	0	0	0	-0.000551265	0	-0.000117448	0	0	0
1.63333	217.337	1491.65	71.0092	0.956531	0	-0.330176	0	-2.5727	0	0	0	0	-0.000551374	0	-0.000117475	0	0	0
1.64167	236.258	1263.06	66.3746	0.926512	0	-0.329896	0	-2.18119	0	0	0	0	-0.000551482	0	-0.000117502	0	0	0
1.65	246.43	1000.08	57.7648	0.89204	0	-0.329571	0	-1.83758	0	0	0	0	-0.000551588	0	-0.000117528	0	0	0
1.65833	239.256	731.334	44.0713	0.853341	0	-0.329205	0	-1.39763	0	0	0	0	-0.000551692	0	-0.000117553	0	0	0
1.66667	206.61	492.295	28.1899	0.817329	0	-0.32796	0	-0.84955	0	0	0	0	-0.000551795	0	-0.000117579	0	0	0
1.675	155.311	304.209	14.7016	0.793002	0	-0.32446	0	-0.291956	0	0	0	0	-0.000551896	0	-0.000117604	0	0	0
1.68333	101.07	170.992	6.06447	0.784512	0	-0.316656	-0	0.140658	-0	0	0	0	-0.000551996	0	-0.000117628	0	0	0
1.69167	56.4706	85.1844	1.66417	0.7851	0	-0.302983	-0	0.349891	-0	0	0	0	-0.000552094	0	-0.000117652	0	0	0
1.7	27.6443	36.6308	-0.227866	0.779464	0	-0.275673	-0	0.307165	-0	0	0	0	-0.00055219	0	-0.000117676	0	0	0
1.70833	11.9508	14.4157	-0.811401	0.825019	0	-0.202597	-0	0.048884	-0	0	0	0	-0.000552284	0	-0.000117699	0	0	0
1.71667	0	0	0	-0.000553561	0	-0.000117913	0	0	0	0	0	0	-0.000552377	0	-0.000117722	0	0	0
1.725	0	0	0	-0.000553657	0	-0.000117937	0	0	0	0	0	0	-0.000552468	0	-0.000117745	0	0	0
1.73333	0	0	0	-0.00055375	0	-0.000117959	0	0	0	0	0	0	-0.000552558	0	-0.000117767	0	0	0
1.74167	0	0	0	-0.000553842	0	-0.000117982	0	0	0	0	0	0	-0.000552645	0	-0.000117788	0	0	0
1.75	0	0	0	-0.000553932	0	-0.000118003	0	0	0	0	0	0	-0.000552731	0	-0.000117809	0	0	0
1.75833	0	0	0	-0.000554021	0	-0.000118025	0	0	0	0	0	0	-0.000552815	0	-0.00011783	0	0	0
1.76667	0	0	0	-0.000554107	0	-0.000118046	0	0	0	0	0	0	-0.000552897	0	-0.00011785	0	0	0
1.775	0	0	0	-0.000554191	0	-0.000118066	0	0	0	0	0	0	-0.000552978	0	-0.00011787	0	0	0
1.78333	0	0	0	-0.000554274	0	-0.000118086	0	0	0	0	0	0	-0.000553056	0	-0.00011789	0	0	0
1.79167	0	0	0	-0.000554354	0	-0.000118106	0	0	0	0	0	0	-0.000553133	0	-0.000117908	0	0	0
1.8	0	0	0	-0.000554433	0	-0.000118125	0	0	0	0	0	0	-0.000553208	0	-0.000117927	0	0	0
1.80833	0	0	0	-0.00055451	0	-0.000118143	0	0	0	0	0	0	-0.000553281	0	-0.000117945	0	0	0
